<?xml version="1.0" encoding="utf-8"?>
<!-- Svg Vector Icons : http://www.onlinewebfonts.com/icon -->
<!DOCTYPE svg PUBLIC "-//W3C//DTD SVG 1.1//EN" "http://www.w3.org/Graphics/SVG/1.1/DTD/svg11.dtd">
<svg version="1.1" xmlns="http://www.w3.org/2000/svg" xmlns:xlink="http://www.w3.org/1999/xlink" x="0px" y="0px" viewBox="0 0 256 256" enable-background="new 0 0 256 256" xml:space="preserve">
<metadata> Svg Vector Icons : http://www.onlinewebfonts.com/icon </metadata>
<g><g><g><path fill="#000000" d="M148.5,14.1l-1.3,1v27.2v27.2l2.6-0.3c6.1-0.9,22.1-0.4,28,0.8l1.3,0.3V42.8V15.5l-1.2-1.2l-1.2-1.2h-13.5C150.5,13,149.8,13.1,148.5,14.1z"/><path fill="#000000" d="M56.8,43.8l-1,1.3v70.1v70.1l1.2,1.2c1.2,1.2,1.3,1.2,10.1,1.2c4.9,0,8.9-0.2,8.9-0.4c0-0.2-0.4-1.7-1-3.3c-2.5-7.1-3.2-13-3.2-25.3c0-10.7,0.1-12.1,1.4-18c2.5-11.6,6.2-20.9,11.9-30l2.8-4.3V75.8c0-30.2,0-30.7-1-31.9l-1-1.3h-14h-14L56.8,43.8z"/><path fill="#000000" d="M102.5,56.8c-0.9,0.9-1,1.6-1,17.7v16.7l4.7-3.7c7.2-5.7,16.8-11,24.7-13.8l2.6-0.9v-7.1c0-6.8-0.3-8.7-1.7-9.5c-0.3-0.2-6.8-0.4-14.4-0.4C104.1,55.8,103.4,55.9,102.5,56.8z"/><path fill="#000000" d="M152.9,74.6c-13.6,1.4-26.8,6.2-38.6,14.1c-7.9,5.2-17.6,14.9-22.8,22.8c-14.9,22.4-18.4,49.2-10,74.1C84.6,194.7,86,197,88,197c1.4,0,71.6-40.4,72.3-41.7c0.3-0.5,9.4-16.3,20.4-35.2c22.8-39.5,21.4-35.9,15.1-38.7C182.6,75.5,167.3,73.1,152.9,74.6z"/><path fill="#000000" d="M11,83.7c-1,1.3-1,1.5-1,51.5v50.1l1.2,1.2l1.2,1.2l13.8-0.1l13.8-0.1l0.9-1.2c0.9-1.1,0.9-2.7,0.9-51.2c0-49.9,0-50-1-51.4l-1-1.3H26H12L11,83.7z"/><path fill="#000000" d="M205,88.9c-0.3,0.3-9,15.3-19.3,33.2c-11,19-18.7,33-18.7,33.8c0,0.7,0.4,1.6,0.9,2c0.8,0.8,71,26.5,72.2,26.5c1.7,0,2.8-1.8,3.9-7.1c6.3-28.1-2.2-57.6-22.7-78.1c-5.9-5.9-12.3-10.7-14.3-10.7C206.2,88.3,205.2,88.6,205,88.9z"/><path fill="#000000" d="M124.5,182.7c-17.3,10-31.9,18.5-32.4,18.8c-2.7,1.8,0,6.5,8.2,15.1c7.8,8.1,15,13.4,24.6,18c11.8,5.7,22.9,8.2,36.7,8.3c9.2,0,10.6-0.2,11.1-2.3c0.4-1.8-12.5-74.1-13.4-75.2c-0.4-0.5-1.4-0.9-2.1-0.9C156.4,164.6,143.3,171.9,124.5,182.7z"/><path fill="#000000" d="M167.1,165c-1.7,1.1-1.7,1.8,4.8,38.2c5.6,31.9,6.4,36,7.4,36.8c0.6,0.5,1.4,0.9,1.9,0.9c1.7,0,12.8-4.1,17.6-6.4c15.8-7.7,30.3-21.9,38.1-37.4c2-4.1,2.3-5.7,1.3-7c-0.7-0.9-67.8-25.4-69.4-25.4C168.2,164.6,167.4,164.8,167.1,165z"/></g></g></g>
</svg>